<svg xmlns="http://www.w3.org/2000/svg" width="14" height="14" fill="none" overflow="visible"><g><path d="M 7 0 C 10.866 0 14 3.134 14 7 C 14 10.866 10.866 14 7 14 C 3.134 14 0 10.866 0 7 C 0 3.134 3.134 0 7 0 Z" fill="transparent" stroke-width="1.5" stroke="currentColor" stroke-linecap="round"></path><path d="M 7 0 C 10.866 0 14 3.134 14 7 C 14 10.866 10.866 14 7 14 C 3.134 14 0 10.866 0 7 C 0 3.134 3.134 0 7 0 Z M 10.134 6.574 C 8.668 5.949 7.576 4.679 7.177 3.137 C 7.156 3.056 7.083 3 7 3 C 6.917 3 6.844 3.056 6.823 3.137 C 6.594 4.024 6.132 4.835 5.485 5.484 C 4.835 6.131 4.025 6.593 3.137 6.822 C 3.056 6.843 3 6.916 3 6.999 C 3 7.082 3.056 7.155 3.137 7.176 C 4.024 7.405 4.835 7.867 5.484 8.514 C 6.132 9.163 6.594 9.974 6.823 10.862 C 6.843 10.943 6.916 11 7 11 C 7.084 11 7.157 10.942 7.177 10.861 C 7.406 9.973 7.868 9.163 8.515 8.514 C 9.164 7.866 9.975 7.404 10.863 7.176 C 10.944 7.155 11 7.082 11 6.999 C 11 6.915 10.942 6.842 10.861 6.822 C 10.612 6.759 10.368 6.676 10.133 6.574 Z" fill="rgb(255, 255, 255)"></path></g></svg>