<svg xmlns="http://www.w3.org/2000/svg" width="16" height="14" fill="none" overflow="visible"><path d="M 8 2.406 C 8 1.203 8.873 0 10.4 0 C 11.928 0 12.801 1.203 12.801 2.406 L 12.801 3.209 C 14.803 3.209 16 4.813 16 6.416 C 16 7.543 15.393 8.845 14.11 9.377 M 8 2.406 L 8 9.647 M 8 2.406 C 8 1.203 7.128 0 5.6 0 C 4.073 0 3.2 1.203 3.2 2.406 L 3.2 3.209 C 1.197 3.209 0 4.813 0 6.416 C 0 7.543 0.608 8.845 1.891 9.377 M 14.11 9.377 C 13.732 9.535 13.296 9.625 12.801 9.625 L 12 9.625 M 14.11 9.377 L 14.11 11.071 C 14.11 12.535 12.999 14 11.055 14 C 9.111 14 8 12.535 8 11.071 M 8 11.07 L 8 9.647 M 8 11.071 C 8 12.535 6.889 14 4.946 14 C 3.001 14 1.891 12.535 1.891 11.071 L 1.891 9.377 M 11.055 6.451 C 9.111 6.451 8 8.182 8 9.647 M 8 9.647 C 8 8.182 6.889 6.451 4.946 6.451 M 1.891 9.377 C 2.268 9.535 2.704 9.625 3.2 9.625 L 4 9.625" fill="transparent" stroke-width="1.5" stroke="rgb(255, 255, 255)" stroke-linecap="round" stroke-linejoin="round"></path></svg>