<svg xmlns="http://www.w3.org/2000/svg" width="16" height="14" fill="none" overflow="visible"><path d="M 7.214 0.314 C 6.787 0.102 6.314 -0.005 5.836 0 C 3.956 0 2.886 1.489 2.886 2.917 L 2.886 2.928 C 1.06 3.292 0 4.906 0 6.482 C 0 7.536 0.488 8.769 1.563 9.496 C 2.025 9.786 2.599 9.964 3.304 9.964 L 4.328 9.964 C 4.763 9.964 5.115 10.312 5.115 10.742 C 5.115 11.171 4.763 11.52 4.328 11.52 L 3.304 11.52 C 2.786 11.523 2.27 11.447 1.775 11.294 C 2.074 12.734 3.32 14 5.245 14 C 6.017 14 6.678 13.798 7.214 13.462 L 7.214 9.348 C 7.214 8.35 6.448 7.286 5.247 7.286 C 4.812 7.286 4.46 6.937 4.46 6.508 C 4.46 6.078 4.812 5.73 5.247 5.73 C 6.028 5.73 6.685 5.961 7.214 6.329 Z M 8.788 13.463 C 9.323 13.798 9.984 14 10.755 14 C 12.68 14 13.926 12.735 14.225 11.296 C 13.731 11.447 13.216 11.523 12.698 11.52 L 11.674 11.52 C 11.24 11.52 10.888 11.171 10.888 10.742 C 10.888 10.312 11.24 9.964 11.674 9.964 L 12.698 9.964 C 13.389 9.964 13.956 9.793 14.413 9.513 C 15.505 8.787 16 7.544 16 6.481 C 16 4.906 14.941 3.292 13.115 2.928 L 13.115 2.917 C 13.115 1.489 12.045 0 10.164 0 C 9.687 -0.005 9.215 0.102 8.788 0.313 L 8.788 6.329 C 9.317 5.961 9.975 5.73 10.755 5.73 C 11.19 5.73 11.542 6.078 11.542 6.508 C 11.542 6.937 11.19 7.286 10.755 7.286 C 9.555 7.286 8.788 8.35 8.788 9.347 Z" fill="rgb(255, 255, 255)"></path></svg>