<svg xmlns="http://www.w3.org/2000/svg" width="17.6" height="16" fill="none" overflow="visible"><path d="M 14.931 0.917 L 3.365 16 L 2.168 15.083 L 13.734 0 Z M 14.649 3.763 C 15.439 4.36 16.13 5.076 16.698 5.887 C 17.233 6.672 17.6 7.526 17.6 8.291 C 17.6 8.978 17.304 9.693 16.867 10.343 C 16.422 11.005 15.79 11.66 15.016 12.237 C 12.885 13.814 10.234 14.521 7.6 14.216 L 7.214 14.165 C 7.053 14.141 6.895 14.111 6.738 14.079 L 7.782 12.718 C 10.03 12.976 12.292 12.373 14.112 11.029 C 14.77 10.537 15.279 10.002 15.616 9.5 C 15.962 8.987 16.091 8.565 16.091 8.291 C 16.091 7.964 15.911 7.411 15.452 6.738 C 14.975 6.059 14.395 5.46 13.732 4.96 L 14.649 3.764 Z M 8.8 1.715 C 9.353 1.715 9.891 1.766 10.408 1.86 L 9.345 3.244 C 9.164 3.231 8.982 3.224 8.8 3.224 C 6.694 3.224 4.851 4.105 3.526 5.226 C 2.864 5.786 2.347 6.392 2.001 6.955 C 1.646 7.533 1.509 8.001 1.509 8.291 C 1.509 8.564 1.632 8.974 1.958 9.471 C 2.278 9.958 2.76 10.478 3.386 10.959 C 3.395 10.967 3.404 10.974 3.414 10.979 L 2.495 12.177 L 2.465 12.154 C 1.726 11.585 1.122 10.945 0.697 10.299 C 0.28 9.663 0 8.965 0 8.291 C 0 7.608 0.289 6.861 0.717 6.165 C 1.155 5.453 1.78 4.727 2.55 4.075 C 4.089 2.771 6.269 1.715 8.8 1.715 Z" fill="rgb(255, 255, 255)"></path></svg>