<svg xmlns="http://www.w3.org/2000/svg" width="19.554" height="19.863" fill="none" overflow="visible"><g><path d="M 19.554 10.203 C 19.554 9.496 19.491 8.816 19.373 8.163 L 9.977 8.163 L 9.977 12.027 L 15.346 12.027 C 15.11 13.269 14.403 14.321 13.342 15.029 L 13.342 17.541 L 16.58 17.541 C 18.466 15.8 19.554 13.242 19.554 10.203 Z" fill="rgb(66,133,244)"></path><path d="M 9.813 19.863 C 12.507 19.863 14.766 18.974 16.416 17.45 L 13.178 14.938 C 12.29 15.537 11.156 15.899 9.813 15.899 C 7.22 15.899 5.016 14.149 4.227 11.791 L 0.907 11.791 L 0.907 14.367 C 2.549 17.623 5.913 19.863 9.813 19.863 Z" fill="rgb(52,168,83)"></path><path d="M 4.39 11.809 C 4.19 11.21 4.072 10.575 4.072 9.913 C 4.072 9.251 4.19 8.616 4.39 8.018 L 4.39 5.442 L 1.07 5.442 C 0.39 6.784 0 8.299 0 9.913 C 0 11.528 0.39 13.042 1.07 14.385 L 3.655 12.371 Z" fill="rgb(251,188,5)"></path><path d="M 9.813 3.973 C 11.283 3.973 12.589 4.48 13.632 5.46 L 16.489 2.603 C 14.757 0.989 12.507 0 9.813 0 C 5.913 0 2.549 2.24 0.907 5.505 L 4.227 8.081 C 5.016 5.723 7.22 3.973 9.813 3.973 Z" fill="rgb(234,67,53)"></path></g></svg>
