<svg xmlns="http://www.w3.org/2000/svg" width="12" height="13.952" fill="none" overflow="visible"><g><path d="M 12 5.87 C 12 5.328 11.78 4.809 11.391 4.432 L 7.391 0.563 C 6.615 -0.188 5.385 -0.188 4.609 0.563 L 0.609 4.432 C 0.22 4.809 0 5.328 0 5.87 L 0 11.968 C 0 13.064 0.888 13.952 1.984 13.952 L 3.968 13.952 L 3.968 13.952 L 7.905 13.952 L 7.905 13.952 L 10 13.952 C 11.105 13.952 12 13.056 12 11.952 Z" fill="transparent" stroke-width="1.5" stroke="currentColor"></path><path d="M 12 11.952 C 12 13.056 11.105 13.952 10 13.952 L 1.984 13.952 C 0.888 13.952 0 13.064 0 11.968 L 0 5.87 C 0 5.328 0.22 4.809 0.609 4.432 L 4.609 0.563 C 5.385 -0.188 6.615 -0.188 7.391 0.563 L 11.391 4.432 C 11.78 4.809 12 5.328 12 5.87 Z M 2.25 11.192 C 2.25 11.606 2.586 11.942 3 11.942 L 9 11.942 C 9.414 11.942 9.75 11.606 9.75 11.192 C 9.75 10.778 9.414 10.442 9 10.442 L 3 10.442 C 2.586 10.442 2.25 10.778 2.25 11.192 Z" fill="rgb(255, 255, 255)"></path></g></svg>