<svg xmlns="http://www.w3.org/2000/svg" width="12" height="14" fill="none" overflow="visible"><g><path d="M 0 7.25 C 0 6.145 0.895 5.25 2 5.25 L 10 5.25 C 11.105 5.25 12 6.145 12 7.25 L 12 12 C 12 13.105 11.105 14 10 14 L 2 14 C 0.895 14 0 13.105 0 12 Z" fill="transparent" stroke-width="1.5" stroke="currentColor"></path><path d="M 2.571 5.25 L 2.571 3.429 C 2.571 1.535 4.106 0 6 0 L 6 0 C 7.894 0 9.429 1.535 9.429 3.429 L 9.429 5.25" fill="transparent" stroke-width="1.5" stroke="currentColor"></path><path d="M 6 8 C 6.828 8 7.5 8.672 7.5 9.5 C 7.5 10.328 6.828 11 6 11 C 5.172 11 4.5 10.328 4.5 9.5 C 4.5 8.672 5.172 8 6 8 Z" fill="rgb(255, 255, 255)"></path></g></svg>
