<svg xmlns="http://www.w3.org/2000/svg" viewBox="0 0 12.864 13.045" preserveAspectRatio="xMidYMid meet" fill="none" overflow="visible"><g><path d="M 0 10.682 C 0 10.029 0.529 9.5 1.182 9.5 L 1.182 9.5 C 1.835 9.5 2.364 10.029 2.364 10.682 L 2.364 11.864 C 2.364 12.516 1.835 13.045 1.182 13.045 L 1.182 13.045 C 0.529 13.045 0 12.516 0 11.864 Z" fill="currentColor"></path><path d="M 3.5 8.182 C 3.5 7.529 4.029 7 4.682 7 L 4.682 7 C 5.335 7 5.864 7.529 5.864 8.182 L 5.864 11.727 C 5.864 12.38 5.335 12.909 4.682 12.909 L 4.682 12.909 C 4.029 12.909 3.5 12.38 3.5 11.727 Z" fill="currentColor"></path><path d="M 7 4.682 C 7 4.029 7.529 3.5 8.182 3.5 L 8.182 3.5 C 8.835 3.5 9.364 4.029 9.364 4.682 L 9.364 11.773 C 9.364 12.425 8.835 12.955 8.182 12.955 L 8.182 12.955 C 7.529 12.955 7 12.425 7 11.773 Z" fill="currentColor" opacity="0.25"></path><path d="M 10.5 1.182 C 10.5 0.529 11.029 0 11.682 0 L 11.682 0 C 12.335 0 12.864 0.529 12.864 1.182 L 12.864 11.818 C 12.864 12.471 12.335 13 11.682 13 L 11.682 13 C 11.029 13 10.5 12.471 10.5 11.818 Z" fill="currentColor" opacity="0.25"></path></g></svg>