<svg xmlns="http://www.w3.org/2000/svg" width="16" height="16" fill="none" overflow="visible"><path d="M 13.8 0 C 15.015 0 16 1.065 16 2.378 L 16 8 C 16 9.313 15.015 10.378 13.8 10.378 L 12.8 10.378 L 12.8 11.459 C 12.8 12.773 11.815 13.838 10.6 13.838 L 6.955 13.838 L 3.491 15.918 C 3.305 16.03 3.079 16.027 2.896 15.91 C 2.712 15.794 2.6 15.581 2.6 15.351 L 2.6 13.838 L 2.2 13.838 C 0.985 13.838 0 12.773 0 11.459 L 0 5.838 C 0 4.524 0.985 3.459 2.2 3.459 L 3.4 3.459 L 3.4 2.378 C 3.4 1.065 4.385 0 5.6 0 Z M 4.6 3.459 L 10.6 3.459 C 11.815 3.459 12.8 4.524 12.8 5.838 L 12.8 9.081 L 13.8 9.081 C 14.352 9.081 14.8 8.597 14.8 8 L 14.8 2.378 C 14.8 1.782 14.352 1.297 13.8 1.297 L 5.6 1.297 C 5.048 1.297 4.6 1.782 4.6 2.378 Z" fill="rgb(255, 255, 255)"></path></svg>