<svg xmlns="http://www.w3.org/2000/svg" width="14" height="14" fill="none" overflow="visible"><g><path d="M 7 0 C 10.866 0 14 3.134 14 7 C 14 10.866 10.866 14 7 14 C 3.134 14 0 10.866 0 7 C 0 3.134 3.134 0 7 0 Z" fill="transparent" stroke-width="1.5" stroke="currentColor"></path><path d="M 7 0 C 10.866 0 14 3.134 14 7 C 14 10.866 10.866 14 7 14 C 3.134 14 0 10.866 0 7 C 0 3.134 3.134 0 7 0 Z M 6.2 6.6 L 4.5 8.5 L 5.5 9.5 L 7.112 8.098 C 7.549 7.718 7.8 7.168 7.8 6.589 L 7.8 2.5 L 6.2 2.5 Z" fill="rgb(255, 255, 255)"></path></g></svg>