<svg xmlns="http://www.w3.org/2000/svg" width="15" height="15" fill="none" overflow="visible"><path d="M 4.237 2.407 C 4.602 0.995 5.95 0 7.499 0 C 9.048 0 10.396 0.995 10.761 2.407 L 14.408 2.407 C 14.735 2.407 15 2.656 15 2.963 C 15 3.27 14.735 3.519 14.408 3.519 L 13.816 3.519 C 13.816 3.531 13.815 3.544 13.814 3.557 L 13.099 13.105 C 13.019 14.172 12.074 14.999 10.934 15 L 4.066 15 C 2.925 15 1.979 14.173 1.899 13.105 L 1.185 3.557 L 1.184 3.519 L 0.592 3.519 C 0.265 3.519 0 3.27 0 2.963 C 0 2.656 0.265 2.407 0.592 2.407 Z M 5.477 2.407 L 9.523 2.407 C 9.197 1.626 8.394 1.112 7.5 1.112 C 6.605 1.112 5.803 1.626 5.477 2.407 Z M 5.329 6.482 L 5.329 10.741 C 5.329 11.048 5.594 11.296 5.921 11.296 C 6.248 11.296 6.513 11.048 6.513 10.741 L 6.513 6.482 C 6.513 6.175 6.248 5.926 5.921 5.926 C 5.594 5.926 5.329 6.175 5.329 6.482 Z M 8.487 6.482 L 8.487 10.741 C 8.487 11.048 8.752 11.296 9.079 11.296 C 9.406 11.296 9.671 11.048 9.671 10.741 L 9.671 6.482 C 9.671 6.175 9.406 5.926 9.079 5.926 C 8.752 5.926 8.487 6.175 8.487 6.482 Z" fill="rgb(255, 255, 255)"></path></svg>