<svg xmlns="http://www.w3.org/2000/svg" width="13.001" height="14" fill="none" overflow="visible"><g><path d="M 0.36 14 C 0.098 14 -0.076 13.729 0.033 13.491 L 0.633 12.174 C 1.681 9.875 3.974 8.4 6.5 8.4 L 6.5 8.4 C 9.027 8.4 11.32 9.875 12.368 12.174 L 12.968 13.491 C 13.077 13.729 12.902 14 12.641 14 Z" fill="rgb(255, 255, 255)" stroke-width="1.5" stroke="currentColor" stroke-linecap="round"></path><path d="M 6.372 0 C 7.957 0 9.243 1.254 9.243 2.8 C 9.243 4.346 7.957 5.6 6.372 5.6 C 4.786 5.6 3.5 4.346 3.5 2.8 C 3.5 1.254 4.786 0 6.372 0 Z" fill="rgb(255, 255, 255)" stroke-width="1.5" stroke="currentColor"></path></g></svg>